<?xml version="1.0" encoding="UTF-8" standalone="no"?>
<!DOCTYPE svg PUBLIC "-//W3C//DTD SVG 1.1//EN"
 "http://www.w3.org/Graphics/SVG/1.1/DTD/svg11.dtd">
<!-- Generated by graphviz version 2.38.0 (20140413.2041)
 -->
<!-- Title: %3 Pages: 1 -->
<svg width="206pt" height="350pt"
 viewBox="0.00 0.00 206.00 350.00" xmlns="http://www.w3.org/2000/svg" xmlns:xlink="http://www.w3.org/1999/xlink">
<g id="graph0" class="graph" transform="scale(1 1) rotate(0) translate(4 346)">
<title>%3</title>
<polygon fill="white" stroke="none" points="-4,4 -4,-346 202,-346 202,4 -4,4"/>
<!-- A -->
<g id="node1" class="node"><title>A</title>
<ellipse fill="none" stroke="black" cx="99" cy="-297" rx="45" ry="45"/>
<text text-anchor="middle" x="99" y="-300.8" font-family="Times,serif" font-size="14.00">A</text>
<text text-anchor="middle" x="99" y="-285.8" font-family="Times,serif" font-size="14.00">MIT</text>
</g>
<!-- B -->
<g id="node2" class="node"><title>B</title>
<ellipse fill="none" stroke="black" cx="45" cy="-171" rx="45" ry="45"/>
<text text-anchor="middle" x="45" y="-174.8" font-family="Times,serif" font-size="14.00">B</text>
<text text-anchor="middle" x="45" y="-159.8" font-family="Times,serif" font-size="14.00">Prosperity</text>
</g>
<!-- A&#45;&gt;B -->
<g id="edge1" class="edge"><title>A&#45;&gt;B</title>
<path fill="none" stroke="black" d="M81.3184,-255.398C76.6564,-244.693 71.5721,-233.017 66.7238,-221.884"/>
<polygon fill="black" stroke="black" points="69.923,-220.464 62.7213,-212.693 63.5051,-223.259 69.923,-220.464"/>
</g>
<!-- C -->
<g id="node3" class="node"><title>C</title>
<ellipse fill="none" stroke="black" cx="153" cy="-171" rx="45" ry="45"/>
<text text-anchor="middle" x="153" y="-174.8" font-family="Times,serif" font-size="14.00">C</text>
<text text-anchor="middle" x="153" y="-159.8" font-family="Times,serif" font-size="14.00">Charity</text>
</g>
<!-- A&#45;&gt;C -->
<g id="edge2" class="edge"><title>A&#45;&gt;C</title>
<path fill="none" stroke="black" d="M116.682,-255.398C121.344,-244.693 126.428,-233.017 131.276,-221.884"/>
<polygon fill="black" stroke="black" points="134.495,-223.259 135.279,-212.693 128.077,-220.464 134.495,-223.259"/>
</g>
<!-- D -->
<g id="node4" class="node"><title>D</title>
<ellipse fill="none" stroke="black" cx="153" cy="-45" rx="45" ry="45"/>
<text text-anchor="middle" x="153" y="-48.8" font-family="Times,serif" font-size="14.00">D</text>
<text text-anchor="middle" x="153" y="-33.8" font-family="Times,serif" font-size="14.00">Parity</text>
</g>
<!-- C&#45;&gt;D -->
<g id="edge3" class="edge"><title>C&#45;&gt;D</title>
<path fill="none" stroke="black" d="M153,-125.933C153,-117.718 153,-109.043 153,-100.557"/>
<polygon fill="black" stroke="black" points="156.5,-100.343 153,-90.3428 149.5,-100.343 156.5,-100.343"/>
</g>
</g>
</svg>
